<?xml version="1.0" standalone="no"?>
<!DOCTYPE svg PUBLIC "-//W3C//DTD SVG 1.1//EN" "http://www.w3.org/Graphics/SVG/1.1/DTD/svg11.dtd" >
<svg xmlns="http://www.w3.org/2000/svg">
<metadata></metadata>
<defs>
<font id="commerce_ssiregular" horiz-adv-x="1024" >
<font-face units-per-em="2048" ascent="1638" descent="-410" />
<missing-glyph horiz-adv-x="625" />
<glyph horiz-adv-x="2048" />
<glyph horiz-adv-x="2048" />
<glyph unicode="&#xd;" horiz-adv-x="0" />
<glyph unicode=" "  horiz-adv-x="625" />
<glyph unicode="&#x09;" horiz-adv-x="625" />
<glyph unicode="&#xa0;" horiz-adv-x="625" />
<glyph unicode="!" horiz-adv-x="682" d="M231 1493h218l-43 -1022h-132zM240 0v227h200v-227h-200z" />
<glyph unicode="&#x22;" horiz-adv-x="682" d="M156 936v557h127v-557h-127zM399 936v557h127v-557h-127z" />
<glyph unicode="#" horiz-adv-x="1251" d="M125 475v117h219l41 313h-203v117h219l64 471h127l-64 -471h279l61 471h127l-61 -471h192v-117h-208l-44 -313h195v-117h-211l-63 -475h-127l63 475h-276l-64 -475h-127l64 475h-203zM471 592h277l43 313h-279z" />
<glyph unicode="$" horiz-adv-x="1251" d="M113 270l118 92q33 -49 87.5 -104t116 -90t128.5 -39v576q-160 39 -286.5 133.5t-126.5 273.5q0 93 34.5 166t91.5 119.5t133 71t154 24.5v160h139v-160q117 -8 219 -79t160 -165l-106 -86q-46 77 -119 133t-154 70v-541q156 -51 247.5 -105t139.5 -132.5t48 -194.5 q0 -112 -59 -202t-159.5 -140.5t-216.5 -50.5v-256h-139v256q-91 1 -173.5 41t-147.5 97t-129 132zM297 1139q0 -222 266 -277v504q-122 0 -194 -63t-72 -164zM702 129q75 5 141.5 37t106 87.5t39.5 127.5q0 122 -76 182.5t-211 102.5v-537z" />
<glyph unicode="%" horiz-adv-x="1821" d="M123 1151q0 94 46 173.5t124 124t172 44.5t172.5 -45t124 -124t45.5 -173t-45.5 -173.5t-123.5 -125t-173 -45.5t-173 45t-123.5 125t-45.5 174zM250 1151q0 -64 28 -112.5t77 -75.5t110 -27q91 0 153 59.5t62 155.5q0 95 -62 155t-153 60t-153 -61t-62 -154zM424 -20 l850 1533h121l-850 -1533h-121zM1014 344q0 94 46 173.5t124 124t172 44.5t172.5 -45t124 -124t45.5 -173q0 -73 -26 -135t-73 -109t-110.5 -73.5t-132.5 -26.5q-92 0 -171 45t-125 125t-46 174zM1141 344q0 -64 28 -112.5t77 -75.5t110 -27q91 0 153 59.5t62 155.5 q0 95 -62 155t-153 60t-153 -61t-62 -154z" />
<glyph unicode="&#x26;" horiz-adv-x="1366" d="M90 408q0 94 45.5 178t115.5 149.5t161 122.5q-33 49 -58.5 108t-42 125t-16.5 126q0 85 40.5 152t115.5 105.5t176 38.5q132 0 217.5 -73.5t85.5 -202.5q0 -116 -85 -211t-227 -199q70 -124 152.5 -232t181.5 -218q36 46 74.5 151.5t58.5 225.5l136 -35 q-21 -113 -67.5 -240t-98.5 -205q29 -30 75.5 -59t93.5 -47t74 -18v-150h-53q-55 0 -141.5 44t-149.5 106q-52 -57 -112 -94t-138.5 -56.5t-171.5 -19.5q-116 0 -217.5 53t-163 150.5t-61.5 224.5zM254 397q0 -89 43 -151.5t112.5 -93.5t143.5 -31q172 0 299 123 q-58 66 -130 157.5t-132 176t-111 167.5q-70 -46 -117.5 -90.5t-77.5 -108t-30 -149.5zM459 1210q0 -104 86 -266q90 58 155.5 135.5t65.5 155.5q0 44 -21 78.5t-56 53.5t-71 19q-76 0 -117.5 -53.5t-41.5 -122.5z" />
<glyph unicode="'" horiz-adv-x="455" d="M164 936v557h127v-557h-127z" />
<glyph unicode="(" horiz-adv-x="682" d="M135 674q0 115 19 227t54 218t86.5 203.5t121.5 190.5h159q-78 -107 -129 -199.5t-88 -196t-56 -216t-19 -237.5q0 -114 21 -227t60 -219t86.5 -194.5t122.5 -197.5h-151q-91 120 -156.5 259.5t-98 285.5t-32.5 303z" />
<glyph unicode=")" horiz-adv-x="682" d="M106 -174q149 201 221 403.5t72 446.5q0 425 -290 837h151q92 -122 157 -259.5t97.5 -284.5t32.5 -303q0 -230 -71.5 -443.5t-209.5 -396.5h-160z" />
<glyph unicode="*" d="M152 1174l36 133l281 -133l12 8l-45 311h137l-36 -307l14 -12l270 141l51 -137l-305 -66l-6 -16l217 -219l-110 -86l-150 276h-16l-150 -272l-106 79l213 236l-4 14z" />
<glyph unicode="+" horiz-adv-x="1229" d="M82 473v129h469v473h127v-473h469v-129h-469v-473h-127v473h-469z" />
<glyph unicode="," horiz-adv-x="625" d="M197 -305l96 305h-82v227h201v-227l-129 -305h-86z" />
<glyph unicode="-" horiz-adv-x="682" d="M82 473v129h516v-129h-516z" />
<glyph unicode="." horiz-adv-x="625" d="M211 0v227h201v-227h-201z" />
<glyph unicode="/" horiz-adv-x="569" d="M-16 -20l477 1533h125l-480 -1533h-122z" />
<glyph unicode="0" horiz-adv-x="1251" d="M102 748q0 392 136 578.5t387 186.5q250 0 386 -186.5t136 -578.5q0 -393 -136 -580.5t-386 -187.5q-251 0 -387 187.5t-136 580.5zM258 748q0 -169 22.5 -288t69.5 -198.5t116 -116t159 -36.5q183 0 274.5 153t91.5 486q0 332 -91.5 485t-274.5 153q-93 0 -161 -36.5 t-114 -114.5t-69 -197.5t-23 -289.5z" />
<glyph unicode="1" horiz-adv-x="1251" d="M289 1313v98q42 13 108 33t103 34t73 35h148v-1384h252v-129h-656v129h256v1212z" />
<glyph unicode="2" horiz-adv-x="1251" d="M135 0v158q82 168 198.5 278t287.5 234.5t246 215t75 226.5q0 131 -78.5 202.5t-220.5 71.5q-100 0 -174.5 -47.5t-117.5 -123t-56 -154.5l-145 33q28 120 82.5 211t156.5 149.5t258 58.5q90 0 173.5 -26.5t144 -75.5t97 -125t36.5 -170q0 -155 -87 -267t-282.5 -262 t-291 -238t-146.5 -220h805v-129h-961z" />
<glyph unicode="3" horiz-adv-x="1251" d="M70 272l118 84q182 -247 406 -247q108 0 186.5 35t120 99t41.5 154q0 336 -418 336h-145v127h88q142 0 237.5 31.5t140 94t44.5 155.5q0 55 -21 100t-59 77t-88 50t-103 18q-123 0 -198 -49t-158 -157l-121 82q84 117 197 184t280 67q102 0 179.5 -24.5t132.5 -71.5 t84.5 -115.5t29.5 -158.5q0 -126 -66 -210t-163 -122q283 -111 283 -397q0 -94 -35 -173.5t-101 -138.5t-159 -90.5t-209 -31.5q-187 0 -321 90t-203 202z" />
<glyph unicode="4" horiz-adv-x="1251" d="M78 352v127l610 1014h217v-1014h254v-127h-254v-352h-147v352h-680zM233 479h525v856h-6z" />
<glyph unicode="5" horiz-adv-x="1251" d="M147 264l134 72q38 -71 87.5 -121t114 -78t140.5 -28q100 0 179.5 41t126 129.5t46.5 224.5q0 110 -40.5 195.5t-115.5 133.5t-176 48q-105 0 -185 -59t-126 -167l-129 29l65 809h758v-127h-635l-37 -479q133 123 303 123q125 0 234 -57.5t174 -173t65 -275.5 q0 -93 -29 -184.5t-90.5 -169t-160 -124t-232.5 -46.5q-88 0 -161 23t-129.5 63t-94.5 84.5t-86 113.5z" />
<glyph unicode="6" horiz-adv-x="1251" d="M123 670q0 179 39.5 333t116 268t191.5 178t259 64q113 0 199.5 -26t120.5 -60l-64 -127q-103 86 -252 86q-190 0 -320.5 -159.5t-133.5 -464.5q82 85 173.5 131.5t231.5 46.5q116 0 217 -54.5t164 -164t63 -262.5t-66 -261.5t-175.5 -163t-235.5 -54.5q-159 0 -277.5 69 t-184.5 222.5t-66 398.5zM283 492q5 -108 49 -194.5t124 -137.5t183 -51q102 0 178 44t116 122.5t40 179.5q0 86 -25.5 152t-69.5 112t-99.5 69t-114.5 23q-68 0 -133.5 -25t-121.5 -71.5t-89 -103.5t-37 -119z" />
<glyph unicode="7" horiz-adv-x="1251" d="M152 1366v127h938v-90l-625 -1403h-172l608 1366h-749z" />
<glyph unicode="8" horiz-adv-x="1251" d="M86 389q0 134 89 235t235 171v4q-124 47 -193.5 137.5t-69.5 206.5q0 118 62 202t169.5 126t246.5 42q137 0 245 -42t170 -126t62 -202t-69 -207.5t-193 -136.5v-4q142 -52 232.5 -157t90.5 -249q0 -179 -139 -294t-399 -115q-259 0 -399 115t-140 294zM242 389 q0 -111 98 -195.5t285 -84.5q127 0 213.5 40.5t128 105t41.5 134.5q0 82 -51.5 143.5t-136 104.5t-222.5 92q-175 -78 -265.5 -150.5t-90.5 -189.5zM303 1151q0 -108 98 -179.5t224 -109.5q134 34 227.5 110.5t93.5 178.5q0 78 -45.5 131.5t-118.5 78.5t-157 25 q-83 0 -157 -25t-119.5 -78.5t-45.5 -131.5z" />
<glyph unicode="9" horiz-adv-x="1251" d="M123 1034q0 154 66 262t175.5 162.5t235.5 54.5q159 0 277.5 -69t184.5 -222.5t66 -398.5q0 -178 -38.5 -330.5t-115 -267.5t-192 -180t-260.5 -65q-114 0 -197 25t-122 61l63 127q54 -43 113 -63.5t139 -20.5q89 0 168.5 40.5t142 119.5t100.5 198.5t44 265.5 q-78 -84 -172 -131t-234 -47q-115 0 -216.5 53.5t-164.5 163t-63 262.5zM279 1038q0 -110 43.5 -191t115 -123t150.5 -42q132 0 231.5 77.5t145.5 201.5q-2 98 -26.5 176t-71 134.5t-110.5 85.5t-145 29q-101 0 -177 -44t-116 -124t-40 -180z" />
<glyph unicode=":" horiz-adv-x="625" d="M211 0v227h201v-227h-201zM211 600v227h201v-227h-201z" />
<glyph unicode=";" horiz-adv-x="625" d="M197 -305l96 305h-82v227h201v-227l-129 -305h-86zM211 600v227h201v-227h-201z" />
<glyph unicode="&#x3c;" horiz-adv-x="1229" d="M94 479v117l1041 479v-127l-893 -409l893 -410v-129z" />
<glyph unicode="=" horiz-adv-x="1229" d="M82 262v129h1065v-129h-1065zM82 684v129h1065v-129h-1065z" />
<glyph unicode="&#x3e;" horiz-adv-x="1229" d="M94 0v129l893 410l-893 409v127l1041 -477v-121z" />
<glyph unicode="?" horiz-adv-x="909" d="M109 1286q51 113 136 170t197 57q88 0 163.5 -36.5t122 -108t46.5 -168.5q0 -90 -41.5 -161t-121 -160.5t-120 -152t-40.5 -138.5v-117h-140v115q0 106 40 179.5t117 161t113.5 144.5t36.5 137q0 71 -43 124.5t-129 53.5q-70 0 -119.5 -36.5t-95.5 -122.5zM276 0v227h201 v-227h-201z" />
<glyph unicode="@" horiz-adv-x="1638" d="M90 741q0 213 102 390.5t278 279.5t380 102q188 0 349 -81t255 -225.5t94 -327.5q0 -142 -45 -255.5t-117 -187t-154 -110.5t-155 -37q-60 0 -100 37.5t-43 91.5l-4 -2q-49 -55 -114 -91t-130 -36q-86 0 -153.5 44.5t-105.5 120t-38 162.5q0 136 59 269.5t163.5 215 t232.5 81.5q172 0 246 -160l40 125h138l-164 -569q-21 -82 -21 -103q0 -51 45 -51q74 0 141 64t107.5 166t40.5 202q0 161 -76.5 281.5t-206 182.5t-284.5 62q-130 0 -243.5 -48.5t-196 -137t-127.5 -205.5t-45 -250q0 -134 47 -249t130.5 -199.5t196.5 -132t238 -47.5 q156 0 289 57.5t217 165.5h155q-63 -116 -166.5 -196t-230.5 -120t-264 -40q-207 0 -382 101.5t-276.5 276.5t-101.5 383zM553 637q0 -93 35 -148t104 -55q88 0 165.5 66t122 163.5t44.5 182.5q0 94 -44 142t-103 48q-92 0 -166.5 -62.5t-116 -156.5t-41.5 -180z" />
<glyph unicode="A" horiz-adv-x="1251" d="M49 0l455 1493h244l454 -1493h-172l-139 467h-531l-139 -467h-172zM401 608h449l-213 770h-23z" />
<glyph unicode="B" horiz-adv-x="1366" d="M221 0v1493h545q96 0 173 -28t130 -78t82 -118.5t29 -144.5q0 -255 -250 -342l2 -4q61 -15 114 -49t90.5 -83.5t59 -111t21.5 -133.5q0 -87 -28 -159t-91.5 -126.5t-167.5 -85t-250 -30.5h-459zM385 141h307q182 0 271.5 65t89.5 204q0 71 -27 127t-76 94t-122 59 t-160 21h-283v-570zM385 852h287q90 0 156.5 21.5t107 56.5t60.5 81.5t20 94.5q0 127 -68.5 187.5t-210.5 60.5h-352v-502z" />
<glyph unicode="C" horiz-adv-x="1251" d="M86 748q0 181 37.5 322t111.5 241t177.5 151t238.5 51q134 0 235 -50.5t166 -147t99 -236.5l-152 -45q-42 170 -126 255t-242 85q-108 0 -194.5 -68.5t-136.5 -211t-50 -346.5q0 -155 29.5 -275t85 -198.5t130.5 -116t169 -37.5q156 0 239 98t121 256l147 -29 q-35 -144 -99.5 -247.5t-169 -161t-251.5 -57.5q-169 0 -296 83.5t-198 257t-71 427.5z" />
<glyph unicode="D" horiz-adv-x="1366" d="M205 0v1493h397q152 0 275.5 -47.5t210.5 -141t134.5 -233t47.5 -323.5q0 -220 -77.5 -390t-230.5 -264t-368 -94h-389zM369 141h221q255 0 385.5 153t130.5 454q0 210 -62.5 346t-176.5 198t-269 62h-229v-1213z" />
<glyph unicode="E" horiz-adv-x="1251" d="M221 0v1493h887v-139h-723v-502h514v-141h-514v-570h764v-141h-928z" />
<glyph unicode="F" horiz-adv-x="1139" d="M205 0v1493h876v-139h-712v-502h528v-141h-528v-711h-164z" />
<glyph unicode="G" horiz-adv-x="1366" d="M98 748q0 193 42 336.5t120.5 239.5t183 142.5t232.5 46.5q409 0 532 -438l-155 -31q-55 176 -145 253t-224 77q-87 0 -162 -32t-133.5 -105t-92.5 -196t-34 -293q0 -171 34 -293t92.5 -195.5t134 -106t161.5 -32.5q117 0 196.5 43.5t118.5 117t39 169.5v127h-333v139 h497v-717h-135v137h-4q-55 -77 -157.5 -117t-229.5 -40q-171 0 -301.5 84t-203.5 257t-73 427z" />
<glyph unicode="H" horiz-adv-x="1479" d="M221 0v1493h164v-641h709v641h163v-1493h-163v711h-709v-711h-164z" />
<glyph unicode="I" horiz-adv-x="682" d="M258 0v1493h164v-1493h-164z" />
<glyph unicode="J" horiz-adv-x="909" d="M16 172l123 80q38 -60 96.5 -95.5t124.5 -35.5q181 0 181 221v1151h164v-1108q0 -139 -38.5 -229t-114.5 -133t-187 -43q-117 0 -198.5 51t-150.5 141z" />
<glyph unicode="K" horiz-adv-x="1366" d="M238 0v1493h163v-776h5l612 776h194l-458 -561l514 -932h-187l-440 795l-240 -295v-500h-163z" />
<glyph unicode="L" horiz-adv-x="1139" d="M221 0v1493h164v-1352h700v-141h-864z" />
<glyph unicode="M" horiz-adv-x="1706" d="M221 0v1493h254l377 -1208h4l371 1208h258v-1493h-148v1366h-6l-413 -1366h-127l-416 1366h-6v-1366h-148z" />
<glyph unicode="N" horiz-adv-x="1479" d="M221 0v1493h236l645 -1149h8v1149h147v-1493h-135l-749 1331h-4v-1331h-148z" />
<glyph unicode="O" horiz-adv-x="1366" d="M104 748q0 182 38.5 326t114 242.5t183 147.5t242.5 49t243 -49t182.5 -146t113.5 -239.5t39 -330.5q0 -187 -39 -330t-113 -240.5t-182.5 -147.5t-243.5 -50t-242.5 50t-183 149t-114 243.5t-38.5 325.5zM268 748q0 -154 28 -273t82.5 -198.5t131 -117.5t172.5 -38 q132 0 224 69t141 209.5t49 348.5t-49 348t-141 209t-224 69q-96 0 -173.5 -38.5t-131 -117t-81.5 -197.5t-28 -273z" />
<glyph unicode="P" horiz-adv-x="1251" d="M205 0v1493h516q153 0 254.5 -54.5t150 -148t48.5 -215.5q0 -192 -135.5 -300.5t-407.5 -108.5h-262v-666h-164zM369 807h278q135 0 214.5 30.5t114 90t34.5 151.5q0 136 -81 205.5t-245 69.5h-315v-547z" />
<glyph unicode="Q" horiz-adv-x="1366" d="M104 748q0 182 38.5 326t114 242.5t183 147.5t242.5 49t243 -49t182.5 -146t113.5 -239.5t39 -330.5t-39 -330.5t-113 -239.5q71 -137 223 -137v-162q-90 0 -147 21.5t-97.5 63.5t-82.5 112q-129 -96 -322 -96q-135 0 -242.5 50t-183 149t-114 243.5t-38.5 325.5z M268 748q0 -154 28 -273t82.5 -198.5t131 -117.5t172.5 -38q143 0 240 82q-38 56 -79 85t-102 38v157q101 -14 165 -48t112 -103q38 72 58 178t20 238q0 208 -49 348t-141 209t-224 69q-96 0 -173.5 -38.5t-131 -117t-81.5 -197.5t-28 -273z" />
<glyph unicode="R" horiz-adv-x="1366" d="M205 0v1493h475q119 0 212.5 -27t154 -75t94 -123.5t33.5 -167.5q0 -289 -295 -389l313 -711h-178l-299 678h-346v-678h-164zM369 819h297q344 0 344 273q0 98 -41.5 155.5t-118.5 82t-186 24.5h-295v-535z" />
<glyph unicode="S" horiz-adv-x="1251" d="M102 369l150 53q51 -135 144.5 -218t242.5 -83q104 0 178.5 35t111 95.5t36.5 137.5q0 127 -98.5 190.5t-308.5 142t-317.5 163.5t-107.5 243q0 82 32 152t90 122t140 81.5t183 29.5q117 0 212.5 -41t166 -123.5t108.5 -201.5l-147 -35q-28 115 -117 188.5t-228 73.5 q-128 0 -201.5 -61t-74.5 -170q0 -107 87.5 -158.5t306 -137.5t328 -176.5t109.5 -252.5q0 -88 -26.5 -165.5t-84 -138.5t-154 -97.5t-232.5 -36.5q-216 0 -334 107t-195 282z" />
<glyph unicode="T" horiz-adv-x="1139" d="M45 1354v139h1049v-139h-443v-1354h-164v1354h-442z" />
<glyph unicode="U" horiz-adv-x="1479" d="M221 451v1042h164v-1055q0 -87 41.5 -160.5t122 -115t190.5 -41.5q84 0 150.5 24t112.5 68.5t69 102t23 122.5v1055h163v-1042q0 -109 -37.5 -196.5t-106.5 -149t-164.5 -93.5t-209.5 -32q-152 0 -269.5 56t-183 162t-65.5 253z" />
<glyph unicode="V" horiz-adv-x="1139" d="M37 1493h164l364 -1225h4l367 1225h166l-459 -1493h-149z" />
<glyph unicode="W" horiz-adv-x="1706" d="M57 1493h156l274 -1192h5l286 1192h146l295 -1192h4l270 1192h156l-351 -1493h-145l-303 1208h-4l-287 -1208h-145z" />
<glyph unicode="X" horiz-adv-x="1139" d="M29 0l442 780l-414 713h189l317 -547l311 547h189l-404 -713l451 -780h-188l-357 616l-348 -616h-188z" />
<glyph unicode="Y" horiz-adv-x="1139" d="M33 1493h180l356 -684l357 684h180l-455 -864v-629h-164v629z" />
<glyph unicode="Z" horiz-adv-x="1139" d="M92 0v121l742 1233h-674v139h878v-107l-753 -1245h762v-141h-955z" />
<glyph unicode="[" horiz-adv-x="682" d="M156 -154v1647h417v-86h-270v-1473h270v-88h-417z" />
<glyph unicode="\" horiz-adv-x="569" d="M-16 1513h125l477 -1533h-123z" />
<glyph unicode="]" horiz-adv-x="682" d="M109 -66h270v1473h-270v86h417v-1647h-417v88z" />
<glyph unicode="^" horiz-adv-x="1229" d="M96 578l459 915h119l459 -915h-129l-392 776l-385 -776h-131z" />
<glyph unicode="_" d="M0 -156h1024v-102h-1024v102z" />
<glyph unicode="`" horiz-adv-x="569" d="M12 1493h224l182 -293h-137z" />
<glyph unicode="a" d="M86 274q0 90 36.5 158t112 118.5t197.5 90t305 72.5v59q0 68 -27.5 112t-76.5 64.5t-115 20.5q-111 0 -178.5 -50.5t-93.5 -117.5l-129 67q56 103 157 165.5t242 62.5q99 0 181.5 -33t135 -106t52.5 -183v-543q0 -137 24 -231h-151l-17 150q-148 -170 -352 -170 q-130 0 -216.5 77t-86.5 217zM233 272q0 -70 55.5 -116.5t121.5 -46.5q79 0 170 50.5t157 125.5v297q-169 -30 -281 -74t-167.5 -102.5t-55.5 -133.5z" />
<glyph unicode="b" horiz-adv-x="1139" d="M172 0q8 78 8 236v1257h148v-520l8 4q146 119 280 119q72 0 148 -30.5t139 -96t102 -172.5t39 -258q0 -292 -132 -425.5t-304 -133.5q-92 0 -164.5 34t-142.5 101l-27 -115h-102zM328 252q79 -78 138.5 -110.5t129.5 -32.5q140 0 220.5 109t80.5 312q0 157 -38 254.5 t-106.5 141t-156.5 43.5q-65 0 -135 -40t-133 -110v-567z" />
<glyph unicode="c" d="M82 539q0 170 53 296.5t152 193.5t231 67q153 0 243.5 -76t145.5 -215l-137 -49q-22 67 -56.5 114t-83.5 73t-112 26q-92 0 -156.5 -51t-98.5 -148.5t-34 -230.5q0 -134 34 -231.5t99 -148t156 -50.5q103 0 167.5 42.5t125.5 153.5l119 -53q-60 -101 -112.5 -157 t-124.5 -85.5t-175 -29.5q-132 0 -231 67t-152 194t-53 298z" />
<glyph unicode="d" horiz-adv-x="1139" d="M94 539q0 194 65 319t163.5 181.5t199.5 56.5q135 0 281 -119l8 -4v520h147v-1257q0 -158 9 -236h-136l-20 106q-38 -54 -113 -90t-168 -36q-77 0 -152.5 29t-140 93.5t-104 175t-39.5 261.5zM242 530q0 -202 80 -311.5t221 -109.5q70 0 128.5 31.5t139.5 111.5v567 q-63 70 -133 110t-135 40q-88 0 -156.5 -43.5t-106.5 -141t-38 -254.5z" />
<glyph unicode="e" d="M82 539q0 128 30.5 231.5t88 176t137 111t178.5 38.5q178 0 292 -121.5t114 -366.5v-100h-693q0 -116 42 -207t114.5 -141.5t159.5 -50.5q97 0 172 48t123 132l114 -60q-43 -74 -91 -126t-126.5 -87.5t-191.5 -35.5q-126 0 -230.5 59.5t-168.5 186t-64 313.5zM233 637 h541q0 74 -16.5 135t-49.5 106t-80 68t-108 23q-130 0 -203 -88.5t-84 -243.5z" />
<glyph unicode="f" horiz-adv-x="682" d="M55 948v127h181v123q0 126 28 194t84.5 94.5t147.5 26.5q23 0 131 -10v-131q-12 1 -32.5 4.5t-38.5 6.5t-36 3q-50 0 -80 -13.5t-43.5 -46t-13.5 -93.5v-158h231v-127h-231v-948h-147v948h-181z" />
<glyph unicode="g" d="M41 -137q0 76 43.5 124t136.5 95q-61 21 -97 63t-36 91q0 62 34 99.5t109 84.5q-47 36 -80.5 84t-49 102.5t-15.5 112.5q0 85 30.5 155t86.5 120t128 76t158 26q159 0 265 -74q49 35 110.5 61.5t118.5 32.5v-147q-45 0 -90.5 -8t-73.5 -21q27 -32 50.5 -93t23.5 -128 q0 -105 -52 -190.5t-142 -135t-195 -49.5q-90 0 -189 29q-84 -25 -84 -101q0 -36 24.5 -56.5t63.5 -20.5q250 0 395.5 -31.5t208 -97.5t62.5 -175q0 -124 -124 -206t-361 -82q-459 0 -459 260zM180 -135q0 -32 13 -55.5t49.5 -41t104.5 -27t177 -9.5q91 0 163.5 17t115 51.5 t43.5 84.5q-2 83 -88.5 121.5t-280.5 38.5q-159 0 -228 -54.5t-69 -125.5zM225 719q0 -106 76.5 -177t198.5 -71q121 0 187.5 69.5t66.5 170.5q0 121 -69 189.5t-202 68.5q-122 0 -190 -70.5t-68 -179.5z" />
<glyph unicode="h" horiz-adv-x="1139" d="M182 0v1493h148v-561h4q67 75 147 119.5t168 44.5q63 0 117.5 -16.5t97.5 -53.5t67.5 -97.5t24.5 -146.5v-782h-147v778q0 191 -174 191q-76 0 -160 -49.5t-145 -114.5v-805h-148z" />
<glyph unicode="i" horiz-adv-x="569" d="M211 0v1075h147v-1075h-147zM211 1335v178h147v-178h-147z" />
<glyph unicode="j" horiz-adv-x="569" d="M45 -250q41 -18 78 -18q63 0 90 23.5t27 82.5v1237h147v-1247q0 -99 -60 -162t-159 -63q-79 0 -123 24v123zM240 1335v178h147v-178h-147z" />
<glyph unicode="k" d="M172 0v1493h147v-961h5l430 543h178l-314 -397l355 -678h-174l-283 551l-197 -227v-324h-147z" />
<glyph unicode="l" horiz-adv-x="569" d="M211 0v1493h147v-1493h-147z" />
<glyph unicode="m" horiz-adv-x="1706" d="M168 0v1075h147v-141l9 8q67 74 148 114t161 40q101 0 171.5 -46t100.5 -124q47 51 102 89.5t114.5 59.5t121.5 21q127 0 210 -72t83 -254v-770h-147v770q0 102 -45 150.5t-121 48.5q-87 0 -149.5 -41.5t-147.5 -124.5v-803h-148v770q0 101 -45 150t-121 49 q-87 0 -149.5 -41.5t-147.5 -124.5v-803h-147z" />
<glyph unicode="n" horiz-adv-x="1139" d="M182 0v1075h148v-143h4q67 75 147 119.5t168 44.5q63 0 117.5 -16.5t97.5 -53.5t67.5 -97.5t24.5 -146.5v-782h-147v778q0 191 -174 191q-76 0 -160 -49.5t-145 -114.5v-805h-148z" />
<glyph unicode="o" d="M76 539q0 156 49 283.5t148 200.5t239 73t239 -73t148 -200t49 -284q0 -158 -49 -285.5t-148 -200.5t-239 -73q-105 0 -187.5 42.5t-138.5 120t-83 177.5t-27 219zM223 539q0 -206 78 -318t211 -112q87 0 152.5 49t101 145.5t35.5 235.5q0 138 -35.5 234t-100.5 146 t-153 50q-133 0 -211 -112.5t-78 -317.5z" />
<glyph unicode="p" horiz-adv-x="1139" d="M180 -397v1472h148v-125h4q44 63 122 104.5t154 41.5q106 0 205 -53t165 -178t66 -326q0 -150 -38.5 -257t-102.5 -174t-139.5 -97.5t-147.5 -30.5q-136 0 -280 118l-8 6v-501h-148zM328 256q62 -68 133.5 -107.5t134.5 -39.5q301 0 301 438q0 133 -36.5 228.5 t-104.5 144.5t-160 49q-68 0 -129.5 -34.5t-138.5 -111.5v-567z" />
<glyph unicode="q" horiz-adv-x="1139" d="M94 539q0 152 39.5 261.5t104.5 174.5t140 93t152 28q94 0 165 -35.5t118 -97.5l27 112h118v-1472h-147v501l-8 -6q-144 -118 -281 -118q-99 0 -198 56.5t-164.5 182t-65.5 320.5zM242 547q0 -438 301 -438q63 0 134.5 39.5t133.5 107.5v567q-79 79 -139.5 112.5 t-128.5 33.5q-141 0 -221 -110t-80 -312z" />
<glyph unicode="r" horiz-adv-x="682" d="M143 0v1075h148v-213h4q43 79 89.5 128.5t108.5 75.5t148 26v-148q-89 -1 -155.5 -41.5t-112.5 -116t-82 -190.5v-596h-148z" />
<glyph unicode="s" horiz-adv-x="909" d="M49 184l117 88q114 -163 305 -163q112 0 170.5 51t58.5 125q0 90 -71.5 128.5t-227.5 85.5t-237.5 112t-81.5 196q3 69 28.5 123t71 90.5t110 56t142.5 19.5q108 -2 210 -54.5t155 -134.5l-103 -90q-64 79 -127 115.5t-147 36.5q-93 0 -143 -43.5t-50 -116.5 q0 -76 58.5 -104.5t227 -82.5t251 -124t82.5 -205q0 -99 -51.5 -170.5t-136 -107t-185.5 -35.5q-126 0 -240 53.5t-186 150.5z" />
<glyph unicode="t" horiz-adv-x="682" d="M37 948v127h174v355h147v-355h246v-127h-246v-766q0 -73 121 -73q66 0 131 10v-123q-52 -16 -172 -16q-122 0 -174.5 39t-52.5 139v790h-174z" />
<glyph unicode="u" horiz-adv-x="1139" d="M182 293v782h148v-778q0 -100 44.5 -144t129.5 -44q74 0 158.5 48.5t146.5 112.5v805h147v-1075h-147v145h-4q-44 -50 -94.5 -87t-108 -57.5t-113.5 -20.5q-132 0 -219.5 76t-87.5 237z" />
<glyph unicode="v" horiz-adv-x="909" d="M33 1075h149l271 -889h4l270 889h150l-320 -1075h-197z" />
<glyph unicode="w" horiz-adv-x="1366" d="M33 1075h149l215 -827h4l209 827h150l213 -831h4l207 831h149l-284 -1075h-150l-213 831h-4l-211 -831h-149z" />
<glyph unicode="x" horiz-adv-x="909" d="M25 0l335 565l-311 510h166l234 -383l223 383h166l-299 -510l346 -565h-170l-266 440l-259 -440h-165z" />
<glyph unicode="y" horiz-adv-x="909" d="M25 1075h155l287 -821h4l250 821h156l-375 -1169q-54 -168 -147 -235.5t-212 -67.5q-17 0 -37 2t-40.5 5.5t-28.5 4.5v123q60 -6 80 -6q95 0 170 49.5t108 206.5z" />
<glyph unicode="z" horiz-adv-x="909" d="M61 0v109l582 839h-524v127h725v-106l-582 -840h586v-129h-787z" />
<glyph unicode="{" horiz-adv-x="682" d="M98 627v86q62 0 94.5 42.5t32.5 118.5v412q0 107 48 167t143 60h127v-86h-78q-92 0 -92 -116v-475q0 -141 -152 -164v-4q152 -25 152 -164v-475q0 -115 92 -115h78v-88h-127q-94 0 -142.5 61t-48.5 166v412q0 79 -31.5 120.5t-95.5 41.5z" />
<glyph unicode="|" horiz-adv-x="455" d="M164 -20v1533h127v-1533h-127z" />
<glyph unicode="}" horiz-adv-x="682" d="M139 -86h78q92 0 92 115v475q0 139 152 164v4q-152 23 -152 164v475q0 116 -92 116h-78v86h127q95 0 143 -59t48 -168v-412q0 -76 32.5 -118.5t94.5 -42.5v-86q-63 0 -95 -41.5t-32 -120.5v-412q0 -107 -48.5 -167t-142.5 -60h-127v88z" />
<glyph unicode="~" horiz-adv-x="1229" d="M135 487q45 85 106 136t156 51q84 0 236 -70q39 -18 76.5 -34t69.5 -25.5t55 -9.5q54 0 95 39t85 106l80 -90q-66 -92 -122.5 -138t-140.5 -46q-51 0 -92.5 15t-120.5 54q-62 34 -114.5 53t-116.5 19q-62 0 -101.5 -41t-70.5 -111z" />
<glyph horiz-adv-x="0" d="M-940 264q2 89 61 156t152 67q23 0 36 -13t13 -36q0 -28 -48 -49.5t-71.5 -41.5t-23.5 -81q0 -65 49 -100t123 -35q2 1 4 1.5t4 0.5q70 0 138.5 26t113.5 75t45 114q0 50 -30 107t-88 143.5t-88 150.5t-30 130q0 202 197 376q89 81 204 138t218 57q70 0 117 -37t47 -106 q0 -22 -6 -43q88 80 202 136t219 56q71 0 117.5 -37t46.5 -106q0 -84 -61.5 -166t-145.5 -148q-65 -51 -141.5 -96t-126.5 -45q-19 0 -38 14t-19 33l2 4q0 40 70 66q110 36 206 110q73 59 109.5 113t36.5 92q0 31 -19 48.5t-53 17.5q-65 0 -150 -40t-147 -89 q-76 -58 -134 -146.5t-58 -173.5q0 -70 30.5 -134t90.5 -155.5t91 -151t31 -116.5q0 -92 -64 -164.5t-162 -111.5t-187 -39q-191 0 -262 110q-61 -54 -149.5 -85t-168.5 -31q-102 0 -170.5 33t-100.5 87t-32 115zM-467 901q0 -55 20.5 -108t45 -94t76.5 -123t69 -119 q61 37 109 37q21 0 35 -14t14 -36q0 -19 -12.5 -29.5t-40 -21t-46.5 -22t-32 -36t-13 -77.5q4 -57 53.5 -89t118.5 -32q2 1 4 1.5t5 0.5q70 0 138.5 26t113.5 75t45 114q0 50 -30 107t-88 143.5t-88 150.5t-30 130q0 69 23 135q-5 -4 -14 -14t-13 -13q-65 -51 -142.5 -96 t-125.5 -45q-20 0 -39 14t-19 33l2 4q0 40 70 66q108 35 207 110q72 60 108.5 113.5t36.5 91.5q0 31 -19 48.5t-52 17.5q-64 0 -148.5 -39.5t-148.5 -89.5q-78 -59 -135.5 -147t-57.5 -173zM360 86q0 60 68 212t151 281.5t115 129.5q16 0 27.5 -10.5t11.5 -28.5 q0 -15 -55.5 -101t-110.5 -193t-98 -251q-14 -50 -24 -69t-39 -19q-20 0 -33 15t-13 34zM766 954q0 26 21 62t50.5 62t55.5 26q24 0 36.5 -13.5t12.5 -35.5q0 -27 -21.5 -63.5t-51.5 -62.5t-56 -26q-47 0 -47 51z" />
<glyph unicode="&#xa1;" horiz-adv-x="682" d="M233 -418l43 1022h132l43 -1022h-218zM242 848v227h200v-227h-200z" />
<glyph unicode="&#xa2;" horiz-adv-x="1251" d="M184 539q0 170 53.5 296.5t151.5 193.5t232 67q79 0 133 -19l65 185h117l-84 -234q96 -68 158 -223l-138 -49q-24 79 -71 131l-273 -762q39 -16 93 -16q103 0 167 42.5t125 153.5l119 -53q-85 -147 -173.5 -209.5t-237.5 -62.5q-82 0 -138 22l-84 -231h-116l100 280 q-96 70 -147.5 194t-51.5 294zM332 539q0 -242 102 -349l275 762q-39 17 -88 17q-67 0 -121 -28.5t-91 -83.5t-57 -136.5t-20 -181.5z" />
<glyph unicode="&#xa3;" horiz-adv-x="1251" d="M53 678v129h201q-12 78 -18.5 130t-6.5 114q0 212 119 337t332 125q126 0 219 -44.5t154 -131t90 -209.5l-139 -24q-23 74 -58.5 135.5t-98 104t-159.5 42.5q-163 0 -233 -87.5t-70 -215.5q0 -108 21 -276h311v-129h-295q12 -52 12 -139q0 -165 -57 -281 q21 -10 113.5 -60t144 -69.5t98.5 -19.5q140 0 214.5 66.5t101.5 197.5l131 -25q-29 -184 -134 -276t-276 -92q-68 0 -132 13.5t-117 35t-106 50t-114 62.5q-97 -141 -246 -161v161q45 9 87.5 38.5t73.5 72.5t51 104.5t20 132.5q0 114 -15 189h-219z" />
<glyph unicode="&#xa4;" horiz-adv-x="1251" d="M115 315l112 113q-110 137 -110 320q0 180 110 317l-112 115l86 86l114 -115q61 51 141.5 80t168.5 29q178 0 309 -109l115 115l86 -86l-113 -115q53 -66 82 -147t29 -170q0 -184 -111 -320l113 -113l-86 -88l-115 117q-130 -111 -309 -111q-180 0 -310 111l-114 -117z M244 748q0 -119 50.5 -209t137 -137.5t193.5 -47.5t193.5 47.5t137 137.5t50.5 209q0 91 -29 163t-80 123t-120.5 79t-151.5 28q-81 0 -150.5 -28t-121 -80t-80.5 -125t-29 -160z" />
<glyph unicode="&#xa5;" horiz-adv-x="1251" d="M100 1493h148l377 -717l376 717h148l-301 -571h209v-127h-275l-88 -166v-17h363v-129h-363v-483h-139v483h-362v129h362v17l-86 166h-276v127h208z" />
<glyph unicode="&#xa6;" horiz-adv-x="455" d="M164 -20v579h127v-579h-127zM164 936v577h127v-577h-127z" />
<glyph unicode="&#xa7;" d="M119 823q0 98 62.5 155.5t183.5 63.5q-39 49 -65 82.5t-40 68.5t-14 89q0 61 33.5 114.5t93.5 85t135 31.5q92 0 158 -39t141 -133l-98 -55q-42 51 -83 84t-110 33q-61 0 -96 -35t-35 -86q0 -33 14.5 -60t64 -81t167.5 -172q115 -116 172.5 -184t79.5 -119t22 -111 q0 -98 -62.5 -154t-160.5 -69q58 -68 84.5 -124.5t26.5 -133.5q0 -63 -32 -120t-96.5 -92.5t-152.5 -35.5q-102 0 -184.5 50t-128.5 132l104 66q88 -135 209 -135q62 0 101.5 36.5t39.5 94.5q0 61 -68 148t-201.5 226.5t-198.5 224.5t-66 154zM258 829q0 -32 17 -64 t46.5 -66.5t104.5 -112.5q56 -61 95 -95.5t67.5 -47.5t58.5 -13q50 0 84.5 32.5t34.5 84.5q0 43 -38.5 102t-133.5 154q-87 90 -128 115.5t-85 25.5q-51 0 -87 -34t-36 -81z" />
<glyph unicode="&#xa8;" horiz-adv-x="569" d="M33 1221v194h180v-194h-180zM356 1221v194h181v-194h-181z" />
<glyph unicode="&#xa9;" horiz-adv-x="1638" d="M49 750q0 213 105 389t283 275t384 99q203 0 380.5 -99t282.5 -275t105 -389q0 -163 -60 -305t-167 -246t-247.5 -161.5t-293.5 -57.5q-207 0 -385 99.5t-282.5 276.5t-104.5 394zM197 750q0 -184 82 -332t225 -231t317 -83q172 0 314 83t224.5 231t82.5 332 q0 178 -82.5 325t-225.5 231.5t-313 84.5q-172 0 -316 -84.5t-226 -231.5t-82 -325zM399 752q0 135 53 241t153.5 166t234.5 60q99 0 179 -37t134 -110.5t68 -170.5h-138q-17 90 -81 141.5t-160 51.5q-93 0 -160 -43.5t-101 -120.5t-34 -176q0 -149 82 -251t217 -102 q63 0 114 25t83.5 71.5t39.5 106.5h140q-15 -73 -48 -132.5t-86 -105.5t-113.5 -68t-129.5 -22q-132 0 -234.5 62.5t-157.5 170.5t-55 243z" />
<glyph unicode="&#xaa;" horiz-adv-x="614" d="M29 1022q0 105 97 169t316 101v27q0 100 -131 100q-137 0 -176 -92l-84 51q82 135 260 135q99 0 170.5 -47.5t71.5 -146.5v-324q0 -86 16 -139h-108l-12 72q-39 -27 -67 -43t-68 -28.5t-85 -12.5q-85 0 -142.5 46.5t-57.5 131.5zM139 1020q0 -33 26.5 -56.5t72.5 -23.5 q53 0 109.5 27t94.5 61v170q-150 -28 -226.5 -71t-76.5 -107z" />
<glyph unicode="&#xab;" d="M164 539l266 325h143l-264 -325l264 -328h-139zM451 539l266 325h143l-264 -325l264 -328h-139z" />
<glyph unicode="&#xac;" horiz-adv-x="1229" d="M82 684v129h1065v-551h-127v422h-938z" />
<glyph unicode="&#xad;" horiz-adv-x="682" d="M82 473v129h516v-129h-516z" />
<glyph unicode="&#xae;" horiz-adv-x="1638" d="M49 750q0 213 105 389t283 275t384 99q203 0 380.5 -99t282.5 -275t105 -389q0 -163 -60 -305t-167 -246t-247.5 -161.5t-293.5 -57.5q-207 0 -385 99.5t-282.5 276.5t-104.5 394zM197 750q0 -184 82 -332t225 -231t317 -83q172 0 314 83t224.5 231t82.5 332 q0 178 -82.5 325t-225.5 231.5t-313 84.5q-172 0 -316 -84.5t-226 -231.5t-82 -325zM524 303v887h336q157 0 234 -61.5t77 -190.5q0 -216 -229 -246l250 -389h-148l-233 385h-152v-385h-135zM659 801h160q119 0 168 34.5t49 110.5q0 68 -42.5 99.5t-151.5 31.5h-183v-276z " />
<glyph unicode="&#xaf;" horiz-adv-x="569" d="M-35 1266v125h639v-125h-639z" />
<glyph unicode="&#xb0;" horiz-adv-x="819" d="M115 1217q0 124 86 210t209 86q82 0 149.5 -40t106.5 -108t39 -148q0 -81 -39.5 -150t-108 -109t-147.5 -40q-124 0 -209.5 87.5t-85.5 211.5zM213 1217q0 -88 57 -147.5t140 -59.5q54 0 98.5 27t71 74.5t26.5 105.5q0 56 -26.5 103.5t-71 75t-98.5 27.5 q-83 0 -140 -59.5t-57 -146.5z" />
<glyph unicode="&#xb1;" horiz-adv-x="1229" d="M82 0v129h1065v-129h-1065zM82 578v127h469v370h127v-370h469v-127h-469v-371h-127v371h-469z" />
<glyph unicode="&#xb2;" horiz-adv-x="750" d="M57 604v111q54 102 132 169.5t186 137t155.5 119t47.5 121.5q0 68 -47.5 108.5t-135.5 40.5q-99 0 -158.5 -52.5t-82.5 -129.5l-95 33q33 110 118 180.5t224 70.5q132 0 209.5 -64.5t77.5 -174.5q0 -98 -56 -168.5t-186 -157t-184 -127t-94 -114.5h524v-103h-635z" />
<glyph unicode="&#xb3;" horiz-adv-x="750" d="M25 766l81 65q103 -137 261 -137q100 0 157.5 42t57.5 112q0 96 -60.5 140t-202.5 44h-92v103h84q120 0 179 36.5t59 118.5q0 33 -21 60t-59.5 44t-87.5 17q-84 0 -129.5 -23.5t-93.5 -82.5l-86 59q115 149 309 149q85 0 148 -26t96.5 -76.5t33.5 -120.5 q0 -75 -37.5 -126t-95.5 -70v-4q57 -19 94.5 -57.5t54.5 -87t17 -95.5q0 -77 -39 -135t-112.5 -90.5t-173.5 -32.5q-125 0 -211.5 53.5t-130.5 120.5z" />
<glyph unicode="&#xb4;" horiz-adv-x="569" d="M152 1200l182 293h223l-268 -293h-137z" />
<glyph unicode="&#xb5;" horiz-adv-x="1139" d="M182 -397v1472h148v-778q0 -100 44.5 -144t129.5 -44q74 0 158.5 48.5t146.5 112.5v805h147v-1075h-147v145h-4q-44 -50 -94.5 -87t-108 -57.5t-113.5 -20.5q-88 0 -159 32v-409h-148z" />
<glyph unicode="&#xb6;" d="M20 1081q0 202 122 307t339 105h568v-102h-146v-1565h-123v1565h-209v-1565h-122v858q-119 0 -218.5 53.5t-155 145t-55.5 198.5z" />
<glyph unicode="&#xb8;" horiz-adv-x="569" d="M59 -420l35 90q63 -39 135 -39q115 0 115 90q0 34 -23 56t-61 22q-53 0 -94 -16l-35 39l129 178h98l-96 -121l4 -4q32 10 62 10q56 0 95 -24t58 -63t19 -85q-1 -85 -66.5 -130.5t-181.5 -45.5q-95 0 -193 43z" />
<glyph unicode="&#xb9;" horiz-adv-x="750" d="M156 1384v68q82 22 119 34t63 27h111v-806h161v-103h-436v103h156v704z" />
<glyph unicode="&#xba;" horiz-adv-x="614" d="M25 1180q0 103 34.5 178t99 115t148.5 40q85 0 150 -40t99 -115.5t34 -177.5q0 -103 -34.5 -179.5t-99 -116.5t-149.5 -40q-84 0 -148 40t-99 116t-35 180zM143 1184q0 -118 41.5 -179t122.5 -61q82 0 123 62t41 174q0 110 -41 172.5t-123 62.5q-77 0 -120.5 -63 t-43.5 -168z" />
<glyph unicode="&#xbb;" d="M164 211l264 328l-264 325h143l266 -325l-270 -328h-139zM451 211l264 328l-264 325h143l266 -325l-270 -328h-139z" />
<glyph unicode="&#xbc;" horiz-adv-x="1876" d="M180 1384v68q147 40 182 61h111v-806h162v-103h-436v103h155v704zM449 -20l899 1533h127l-906 -1533h-120zM1075 211v92l379 594h158v-582h166v-104h-166v-211h-111v211h-426zM1200 315h301v463h-4z" />
<glyph unicode="&#xbd;" horiz-adv-x="1876" d="M180 1384v68q147 40 182 61h111v-806h162v-103h-436v103h155v704zM408 -20l899 1533h127l-906 -1533h-120zM1126 0v113q53 100 132 167.5t188 138t155 118.5t46 120q0 69 -47.5 109.5t-135.5 40.5q-99 0 -158.5 -52.5t-82.5 -129.5l-95 32q33 111 118 181.5t224 70.5 q132 0 209.5 -64.5t77.5 -174.5q0 -98 -56 -168.5t-186 -157t-184.5 -127t-93.5 -113.5h524v-104h-635z" />
<glyph unicode="&#xbe;" horiz-adv-x="1876" d="M98 766l82 65q103 -137 260 -137q102 0 158.5 42t56.5 112q0 96 -60 140t-202 44h-92v103h84q120 0 179 36.5t59 118.5q0 33 -21 60t-59.5 44t-87.5 17q-84 0 -130.5 -24t-93.5 -82l-86 59q117 149 310 149q85 0 148 -26t96.5 -76.5t33.5 -120.5q0 -75 -37.5 -126 t-95.5 -70v-4q57 -19 94.5 -57.5t54.5 -87t17 -95.5q0 -77 -39 -135t-113 -90.5t-174 -32.5q-124 0 -211 53.5t-131 120.5zM481 -20l899 1533h127l-905 -1533h-121zM1075 211v92l379 594h158v-582h166v-104h-166v-211h-111v211h-426zM1200 315h301v463h-4z" />
<glyph unicode="&#xbf;" horiz-adv-x="909" d="M135 -125q0 91 41 161.5t122.5 162t121 152t39.5 136.5v117h139v-115q0 -105 -40.5 -180t-117 -160.5t-113 -142t-36.5 -139.5q0 -70 44 -124t128 -54q70 0 119.5 37t95.5 122l123 -59q-35 -74 -84 -124.5t-113 -76.5t-137 -26q-88 0 -164 36.5t-122 108.5t-46 168z M432 848v227h201v-227h-201z" />
<glyph unicode="&#xc0;" horiz-adv-x="1251" d="M49 0l455 1493h244l454 -1493h-172l-139 467h-531l-139 -467h-172zM354 1866h224l182 -293h-137zM401 608h449l-213 770h-23z" />
<glyph unicode="&#xc1;" horiz-adv-x="1251" d="M49 0l455 1493h244l454 -1493h-172l-139 467h-531l-139 -467h-172zM401 608h449l-213 770h-23zM494 1573l182 293h223l-268 -293h-137z" />
<glyph unicode="&#xc2;" horiz-adv-x="1251" d="M49 0l455 1493h244l454 -1493h-172l-139 467h-531l-139 -467h-172zM328 1573l200 293h193l205 -293h-164l-137 194l-133 -194h-164zM401 608h449l-213 770h-23z" />
<glyph unicode="&#xc3;" horiz-adv-x="1251" d="M49 0l455 1493h244l454 -1493h-172l-139 467h-531l-139 -467h-172zM276 1591q11 100 66.5 163t153.5 63q56 0 149 -37q87 -39 133 -39q39 0 64.5 24.5t31.5 65.5h103q-5 -51 -31.5 -102.5t-70.5 -85t-97 -33.5q-34 0 -64 8t-96 31q-103 39 -153 39q-31 0 -57.5 -31 t-28.5 -66h-103zM401 608h449l-213 770h-23z" />
<glyph unicode="&#xc4;" horiz-adv-x="1251" d="M49 0l455 1493h244l454 -1493h-172l-139 467h-531l-139 -467h-172zM375 1593v195h180v-195h-180zM401 608h449l-213 770h-23zM698 1593v195h181v-195h-181z" />
<glyph unicode="&#xc5;" horiz-adv-x="1251" d="M49 0l455 1493h244l454 -1493h-172l-139 467h-531l-139 -467h-172zM401 608h449l-213 770h-23zM422 1780q0 56 27.5 103t74 75.5t103.5 28.5q56 0 102.5 -28.5t74 -75.5t27.5 -103q0 -57 -27.5 -104t-74.5 -75t-102 -28q-56 0 -103 28t-74.5 75t-27.5 104zM512 1780 q0 -47 34 -81t81 -34q46 0 80 34t34 81q0 46 -34 80t-80 34q-47 0 -81 -34t-34 -80z" />
<glyph unicode="&#xc6;" horiz-adv-x="2048" d="M33 0l833 1493h1039v-139h-723v-502h514v-141h-514v-570h764v-141h-928v467h-545l-254 -467h-186zM553 608h465v770h-45z" />
<glyph unicode="&#xc7;" horiz-adv-x="1251" d="M86 748q0 181 37.5 322t111.5 241t177.5 151t238.5 51q134 0 235 -50.5t166 -147t99 -236.5l-152 -45q-42 170 -126 255t-242 85q-108 0 -194.5 -68.5t-136.5 -211t-50 -346.5q0 -155 29.5 -275t85 -198.5t130.5 -116t169 -37.5q156 0 239 98t121 256l147 -29 q-35 -144 -99.5 -247.5t-169 -161t-251.5 -57.5q-169 0 -296 83.5t-198 257t-71 427.5zM420 -420l35 90q63 -39 135 -39q115 0 115 90q0 34 -23 56t-61 22q-54 0 -95 -16l-34 39l129 178h98l-96 -121l4 -4q30 10 61 10q58 0 96.5 -24t57 -63t18.5 -85q-1 -85 -66.5 -130.5 t-181.5 -45.5q-96 0 -192 43z" />
<glyph unicode="&#xc8;" horiz-adv-x="1251" d="M221 0v1493h887v-139h-723v-502h514v-141h-514v-570h764v-141h-928zM412 1866h223l182 -293h-137z" />
<glyph unicode="&#xc9;" horiz-adv-x="1251" d="M221 0v1493h887v-139h-723v-502h514v-141h-514v-570h764v-141h-928zM551 1573l182 293h223l-268 -293h-137z" />
<glyph unicode="&#xca;" horiz-adv-x="1251" d="M221 0v1493h887v-139h-723v-502h514v-141h-514v-570h764v-141h-928zM385 1573l201 293h192l205 -293h-164l-137 194l-133 -194h-164z" />
<glyph unicode="&#xcb;" horiz-adv-x="1251" d="M221 0v1493h887v-139h-723v-502h514v-141h-514v-570h764v-141h-928zM432 1593v195h180v-195h-180zM756 1593v195h180v-195h-180z" />
<glyph unicode="&#xcc;" horiz-adv-x="682" d="M70 1866h223l182 -293h-137zM258 0v1493h164v-1493h-164z" />
<glyph unicode="&#xcd;" horiz-adv-x="682" d="M209 1573l182 293h223l-268 -293h-137zM258 0v1493h164v-1493h-164z" />
<glyph unicode="&#xce;" horiz-adv-x="682" d="M43 1573l201 293h192l205 -293h-164l-137 194l-133 -194h-164zM258 0v1493h164v-1493h-164z" />
<glyph unicode="&#xcf;" horiz-adv-x="682" d="M90 1593v195h180v-195h-180zM258 0v1493h164v-1493h-164zM414 1593v195h180v-195h-180z" />
<glyph unicode="&#xd0;" horiz-adv-x="1366" d="M66 711v141h139v641h397q152 0 275.5 -47.5t210.5 -141t134.5 -233t47.5 -323.5q0 -220 -77.5 -390t-230.5 -264t-368 -94h-389v711h-139zM369 141h221q255 0 385.5 153t130.5 454q0 210 -62.5 346t-176.5 198t-269 62h-229v-502h385v-141h-385v-570z" />
<glyph unicode="&#xd1;" horiz-adv-x="1479" d="M221 0v1493h236l645 -1149h8v1149h147v-1493h-135l-749 1331h-4v-1331h-148zM389 1591q6 62 32.5 114t73.5 82t113 30q57 0 150 -37q87 -39 133 -39q39 0 64.5 24.5t31.5 65.5h103q-6 -53 -32.5 -103.5t-70 -84t-96.5 -33.5q-55 0 -160 39q-103 39 -153 39 q-31 0 -57.5 -31t-28.5 -66h-103z" />
<glyph unicode="&#xd2;" horiz-adv-x="1366" d="M104 748q0 182 38.5 326t114 242.5t183 147.5t242.5 49t243 -49t182.5 -146t113.5 -239.5t39 -330.5q0 -187 -39 -330t-113 -240.5t-182.5 -147.5t-243.5 -50t-242.5 50t-183 149t-114 243.5t-38.5 325.5zM268 748q0 -154 28 -273t82.5 -198.5t131 -117.5t172.5 -38 q132 0 224 69t141 209.5t49 348.5t-49 348t-141 209t-224 69q-96 0 -173.5 -38.5t-131 -117t-81.5 -197.5t-28 -273zM412 1866h223l182 -293h-137z" />
<glyph unicode="&#xd3;" horiz-adv-x="1366" d="M104 748q0 182 38.5 326t114 242.5t183 147.5t242.5 49t243 -49t182.5 -146t113.5 -239.5t39 -330.5q0 -187 -39 -330t-113 -240.5t-182.5 -147.5t-243.5 -50t-242.5 50t-183 149t-114 243.5t-38.5 325.5zM268 748q0 -154 28 -273t82.5 -198.5t131 -117.5t172.5 -38 q132 0 224 69t141 209.5t49 348.5t-49 348t-141 209t-224 69q-96 0 -173.5 -38.5t-131 -117t-81.5 -197.5t-28 -273zM551 1573l182 293h223l-268 -293h-137z" />
<glyph unicode="&#xd4;" horiz-adv-x="1366" d="M104 748q0 182 38.5 326t114 242.5t183 147.5t242.5 49t243 -49t182.5 -146t113.5 -239.5t39 -330.5q0 -187 -39 -330t-113 -240.5t-182.5 -147.5t-243.5 -50t-242.5 50t-183 149t-114 243.5t-38.5 325.5zM268 748q0 -154 28 -273t82.5 -198.5t131 -117.5t172.5 -38 q132 0 224 69t141 209.5t49 348.5t-49 348t-141 209t-224 69q-96 0 -173.5 -38.5t-131 -117t-81.5 -197.5t-28 -273zM385 1573l201 293h192l205 -293h-164l-137 194l-133 -194h-164z" />
<glyph unicode="&#xd5;" horiz-adv-x="1366" d="M104 748q0 182 38.5 326t114 242.5t183 147.5t242.5 49t243 -49t182.5 -146t113.5 -239.5t39 -330.5q0 -187 -39 -330t-113 -240.5t-182.5 -147.5t-243.5 -50t-242.5 50t-183 149t-114 243.5t-38.5 325.5zM268 748q0 -154 28 -273t82.5 -198.5t131 -117.5t172.5 -38 q132 0 224 69t141 209.5t49 348.5t-49 348t-141 209t-224 69q-96 0 -173.5 -38.5t-131 -117t-81.5 -197.5t-28 -273zM334 1591q6 62 32.5 114t73.5 82t113 30q56 0 149 -37q89 -39 134 -39q39 0 64.5 24.5t31.5 65.5h102q-5 -51 -31.5 -102.5t-70 -85t-96.5 -33.5 q-55 0 -160 39q-50 19 -86 29t-68 10q-31 0 -57.5 -31t-28.5 -66h-102z" />
<glyph unicode="&#xd6;" horiz-adv-x="1366" d="M104 748q0 182 38.5 326t114 242.5t183 147.5t242.5 49t243 -49t182.5 -146t113.5 -239.5t39 -330.5q0 -187 -39 -330t-113 -240.5t-182.5 -147.5t-243.5 -50t-242.5 50t-183 149t-114 243.5t-38.5 325.5zM268 748q0 -154 28 -273t82.5 -198.5t131 -117.5t172.5 -38 q132 0 224 69t141 209.5t49 348.5t-49 348t-141 209t-224 69q-96 0 -173.5 -38.5t-131 -117t-81.5 -197.5t-28 -273zM432 1593v195h180v-195h-180zM756 1593v195h180v-195h-180z" />
<glyph unicode="&#xd7;" horiz-adv-x="1229" d="M82 90l442 449l-442 446l90 90l442 -450l443 450l90 -90l-442 -446l442 -449l-90 -90l-443 446l-442 -446z" />
<glyph unicode="&#xd8;" horiz-adv-x="1366" d="M66 -133l192 309q-75 98 -114.5 242.5t-39.5 329.5q0 182 38.5 326t114 242.5t183 147.5t242.5 49q103 0 185.5 -25.5t150.5 -80.5l115 186h143l-170 -274q154 -200 154 -571q0 -187 -39 -330t-113 -240.5t-182.5 -147.5t-243.5 -50q-202 0 -340 110l-139 -223h-137z M268 748q0 -136 21 -240t61 -180l588 948q-49 47 -114.5 72.5t-141.5 25.5q-96 0 -173.5 -38.5t-131 -117t-81.5 -197.5t-28 -273zM424 221q94 -100 258 -100q132 0 224 69t141 209.5t49 348.5q0 265 -82 423z" />
<glyph unicode="&#xd9;" horiz-adv-x="1479" d="M221 451v1042h164v-1055q0 -87 41.5 -160.5t122 -115t190.5 -41.5q84 0 150.5 24t112.5 68.5t69 102t23 122.5v1055h163v-1042q0 -109 -37.5 -196.5t-106.5 -149t-164.5 -93.5t-209.5 -32q-152 0 -269.5 56t-183 162t-65.5 253zM467 1866h223l182 -293h-137z" />
<glyph unicode="&#xda;" horiz-adv-x="1479" d="M221 451v1042h164v-1055q0 -87 41.5 -160.5t122 -115t190.5 -41.5q84 0 150.5 24t112.5 68.5t69 102t23 122.5v1055h163v-1042q0 -109 -37.5 -196.5t-106.5 -149t-164.5 -93.5t-209.5 -32q-152 0 -269.5 56t-183 162t-65.5 253zM606 1573l182 293h224l-269 -293h-137z " />
<glyph unicode="&#xdb;" horiz-adv-x="1479" d="M221 451v1042h164v-1055q0 -87 41.5 -160.5t122 -115t190.5 -41.5q84 0 150.5 24t112.5 68.5t69 102t23 122.5v1055h163v-1042q0 -109 -37.5 -196.5t-106.5 -149t-164.5 -93.5t-209.5 -32q-152 0 -269.5 56t-183 162t-65.5 253zM440 1573l201 293h193l204 -293h-164 l-137 194l-133 -194h-164z" />
<glyph unicode="&#xdc;" horiz-adv-x="1479" d="M221 451v1042h164v-1055q0 -87 41.5 -160.5t122 -115t190.5 -41.5q84 0 150.5 24t112.5 68.5t69 102t23 122.5v1055h163v-1042q0 -109 -37.5 -196.5t-106.5 -149t-164.5 -93.5t-209.5 -32q-152 0 -269.5 56t-183 162t-65.5 253zM487 1593v195h181v-195h-181zM811 1593 v195h180v-195h-180z" />
<glyph unicode="&#xdd;" horiz-adv-x="1139" d="M33 1493h180l356 -684l357 684h180l-455 -864v-629h-164v629zM436 1573l182 293h224l-269 -293h-137z" />
<glyph unicode="&#xde;" horiz-adv-x="1251" d="M205 0v1493h164v-289h352q153 0 254.5 -54.5t150 -148t48.5 -215.5q0 -125 -58.5 -217t-181 -142t-303.5 -50h-262v-377h-164zM369 518h278q197 0 280 66.5t83 206.5q0 135 -80.5 203.5t-245.5 68.5h-315v-545z" />
<glyph unicode="&#xdf;" horiz-adv-x="1139" d="M193 0v1147q0 186 109.5 276t270.5 90q93 0 162.5 -26t117 -75.5t70.5 -113.5t23 -143q0 -70 -20.5 -131t-60 -106t-101.5 -76v-4q93 -28 154 -88.5t89.5 -147t28.5 -196.5q0 -101 -27.5 -179.5t-77 -134t-113.5 -84t-130 -28.5q-125 0 -215 55l55 123q58 -49 148 -49 q105 0 159 79.5t54 206.5q0 131 -44.5 213t-127 118t-199.5 36v127h60q59 0 110 33t81 90t30 131q0 116 -57.5 179.5t-172.5 63.5q-77 0 -127 -31t-73.5 -91.5t-28.5 -155.5v-1108h-147z" />
<glyph unicode="&#xe0;" d="M86 274q0 90 36.5 158t112 118.5t197.5 90t305 72.5v59q0 68 -27.5 112t-76.5 64.5t-115 20.5q-111 0 -178.5 -50.5t-93.5 -117.5l-129 67q56 103 157 165.5t242 62.5q99 0 181.5 -33t135 -106t52.5 -183v-543q0 -137 24 -231h-151l-17 150q-148 -170 -352 -170 q-130 0 -216.5 77t-86.5 217zM229 1493h224l182 -293h-137zM233 272q0 -70 55.5 -116.5t121.5 -46.5q79 0 170 50.5t157 125.5v297q-169 -30 -281 -74t-167.5 -102.5t-55.5 -133.5z" />
<glyph unicode="&#xe1;" d="M86 274q0 90 36.5 158t112 118.5t197.5 90t305 72.5v59q0 68 -27.5 112t-76.5 64.5t-115 20.5q-111 0 -178.5 -50.5t-93.5 -117.5l-129 67q56 103 157 165.5t242 62.5q99 0 181.5 -33t135 -106t52.5 -183v-543q0 -137 24 -231h-151l-17 150q-148 -170 -352 -170 q-130 0 -216.5 77t-86.5 217zM233 272q0 -70 55.5 -116.5t121.5 -46.5q79 0 170 50.5t157 125.5v297q-169 -30 -281 -74t-167.5 -102.5t-55.5 -133.5zM369 1200l182 293h223l-268 -293h-137z" />
<glyph unicode="&#xe2;" d="M86 274q0 90 36.5 158t112 118.5t197.5 90t305 72.5v59q0 68 -27.5 112t-76.5 64.5t-115 20.5q-111 0 -178.5 -50.5t-93.5 -117.5l-129 67q56 103 157 165.5t242 62.5q99 0 181.5 -33t135 -106t52.5 -183v-543q0 -137 24 -231h-151l-17 150q-148 -170 -352 -170 q-130 0 -216.5 77t-86.5 217zM203 1200l200 293h193l205 -293h-164l-137 195l-133 -195h-164zM233 272q0 -70 55.5 -116.5t121.5 -46.5q79 0 170 50.5t157 125.5v297q-169 -30 -281 -74t-167.5 -102.5t-55.5 -133.5z" />
<glyph unicode="&#xe3;" d="M86 274q0 90 36.5 158t112 118.5t197.5 90t305 72.5v59q0 68 -27.5 112t-76.5 64.5t-115 20.5q-111 0 -178.5 -50.5t-93.5 -117.5l-129 67q56 103 157 165.5t242 62.5q99 0 181.5 -33t135 -106t52.5 -183v-543q0 -137 24 -231h-151l-17 150q-148 -170 -352 -170 q-130 0 -216.5 77t-86.5 217zM152 1219q6 63 32.5 114t73.5 81t113 30q56 0 149 -37q87 -39 133 -39q38 0 64.5 25.5t32.5 64.5h102q-5 -51 -31.5 -102.5t-70.5 -85t-97 -33.5q-19 0 -42.5 4.5t-40.5 9.5t-40 13t-36 12q-105 39 -154 39q-30 0 -57 -30.5t-29 -65.5h-102z M233 272q0 -70 55.5 -116.5t121.5 -46.5q79 0 170 50.5t157 125.5v297q-169 -30 -281 -74t-167.5 -102.5t-55.5 -133.5z" />
<glyph unicode="&#xe4;" d="M86 274q0 90 36.5 158t112 118.5t197.5 90t305 72.5v59q0 68 -27.5 112t-76.5 64.5t-115 20.5q-111 0 -178.5 -50.5t-93.5 -117.5l-129 67q56 103 157 165.5t242 62.5q99 0 181.5 -33t135 -106t52.5 -183v-543q0 -137 24 -231h-151l-17 150q-148 -170 -352 -170 q-130 0 -216.5 77t-86.5 217zM233 272q0 -70 55.5 -116.5t121.5 -46.5q79 0 170 50.5t157 125.5v297q-169 -30 -281 -74t-167.5 -102.5t-55.5 -133.5zM250 1221v194h180v-194h-180zM573 1221v194h181v-194h-181z" />
<glyph unicode="&#xe5;" d="M86 274q0 90 36.5 158t112 118.5t197.5 90t305 72.5v59q0 68 -27.5 112t-76.5 64.5t-115 20.5q-111 0 -178.5 -50.5t-93.5 -117.5l-129 67q56 103 157 165.5t242 62.5q99 0 181.5 -33t135 -106t52.5 -183v-543q0 -137 24 -231h-151l-17 150q-148 -170 -352 -170 q-130 0 -216.5 77t-86.5 217zM233 272q0 -70 55.5 -116.5t121.5 -46.5q79 0 170 50.5t157 125.5v297q-169 -30 -281 -74t-167.5 -102.5t-55.5 -133.5zM297 1407q0 56 27.5 103t74.5 75.5t103 28.5q55 0 102 -28t75 -75.5t28 -103.5q0 -57 -28 -104.5t-75 -75t-102 -27.5 q-56 0 -103 28t-74.5 75t-27.5 104zM387 1407q0 -47 34 -81t81 -34q46 0 80 34t34 81q0 46 -33.5 80.5t-80.5 34.5q-48 0 -81.5 -34.5t-33.5 -80.5z" />
<glyph unicode="&#xe6;" horiz-adv-x="1593" d="M70 252q0 116 49.5 196t136.5 131.5t186 79.5t246 54v59q0 64 -23 108t-67.5 66.5t-110.5 22.5q-105 0 -170.5 -50.5t-93.5 -117.5l-125 67q32 64 87 116t129.5 82t164.5 30q216 0 307 -144q117 144 308 144q83 0 155 -29t125 -86.5t85 -151t32 -221.5v-100h-655 q0 -189 76.5 -294t226.5 -105q79 0 152 49t118 131l115 -60q-41 -71 -90 -125t-124.5 -89t-183.5 -35q-114 0 -201.5 38.5t-154.5 143.5q-108 -107 -200.5 -144.5t-209.5 -37.5q-72 0 -138.5 32t-109 95t-42.5 145zM217 272q0 -46 23.5 -83.5t63 -58.5t85.5 -21 q63 0 125 26.5t107.5 65t66.5 75.5v306q-205 -41 -338 -111.5t-133 -198.5zM836 637h507q0 152 -69 242t-189 90q-242 0 -249 -332z" />
<glyph unicode="&#xe7;" d="M82 539q0 170 53 296.5t152 193.5t231 67q153 0 243.5 -76t145.5 -215l-137 -49q-22 67 -56.5 114t-83.5 73t-112 26q-92 0 -156.5 -51t-98.5 -148.5t-34 -230.5q0 -134 34 -231.5t99 -148t156 -50.5q103 0 167.5 42.5t125.5 153.5l119 -53q-60 -101 -112.5 -157 t-124.5 -85.5t-175 -29.5q-132 0 -231 67t-152 194t-53 298zM287 -420l35 90q62 -39 135 -39q55 0 84.5 23t29.5 67q0 33 -23.5 55.5t-60.5 22.5q-53 0 -94 -16l-35 39l129 178h99l-97 -121l5 -4q30 10 61 10q58 0 96.5 -24t57 -63t18.5 -85q-1 -85 -66.5 -130.5 t-181.5 -45.5q-96 0 -192 43z" />
<glyph unicode="&#xe8;" d="M82 539q0 128 30.5 231.5t88 176t137 111t178.5 38.5q178 0 292 -121.5t114 -366.5v-100h-693q0 -116 42 -207t114.5 -141.5t159.5 -50.5q97 0 172 48t123 132l114 -60q-43 -74 -91 -126t-126.5 -87.5t-191.5 -35.5q-126 0 -230.5 59.5t-168.5 186t-64 313.5zM233 637 h541q0 74 -16.5 135t-49.5 106t-80 68t-108 23q-130 0 -203 -88.5t-84 -243.5zM240 1493h223l182 -293h-137z" />
<glyph unicode="&#xe9;" d="M82 539q0 128 30.5 231.5t88 176t137 111t178.5 38.5q178 0 292 -121.5t114 -366.5v-100h-693q0 -116 42 -207t114.5 -141.5t159.5 -50.5q97 0 172 48t123 132l114 -60q-43 -74 -91 -126t-126.5 -87.5t-191.5 -35.5q-126 0 -230.5 59.5t-168.5 186t-64 313.5zM233 637 h541q0 74 -16.5 135t-49.5 106t-80 68t-108 23q-130 0 -203 -88.5t-84 -243.5zM379 1200l182 293h223l-268 -293h-137z" />
<glyph unicode="&#xea;" d="M82 539q0 128 30.5 231.5t88 176t137 111t178.5 38.5q178 0 292 -121.5t114 -366.5v-100h-693q0 -116 42 -207t114.5 -141.5t159.5 -50.5q97 0 172 48t123 132l114 -60q-43 -74 -91 -126t-126.5 -87.5t-191.5 -35.5q-126 0 -230.5 59.5t-168.5 186t-64 313.5zM213 1200 l201 293h192l205 -293h-164l-137 195l-133 -195h-164zM233 637h541q0 74 -16.5 135t-49.5 106t-80 68t-108 23q-130 0 -203 -88.5t-84 -243.5z" />
<glyph unicode="&#xeb;" d="M82 539q0 128 30.5 231.5t88 176t137 111t178.5 38.5q178 0 292 -121.5t114 -366.5v-100h-693q0 -116 42 -207t114.5 -141.5t159.5 -50.5q97 0 172 48t123 132l114 -60q-43 -74 -91 -126t-126.5 -87.5t-191.5 -35.5q-126 0 -230.5 59.5t-168.5 186t-64 313.5zM233 637 h541q0 74 -16.5 135t-49.5 106t-80 68t-108 23q-130 0 -203 -88.5t-84 -243.5zM260 1221v194h180v-194h-180zM584 1221v194h180v-194h-180z" />
<glyph unicode="&#xec;" horiz-adv-x="569" d="M12 1493h224l182 -293h-137zM211 0v1075h147v-1075h-147z" />
<glyph unicode="&#xed;" horiz-adv-x="569" d="M152 1200l182 293h223l-268 -293h-137zM211 0v1075h147v-1075h-147z" />
<glyph unicode="&#xee;" horiz-adv-x="569" d="M-14 1200l200 293h193l205 -293h-164l-137 195l-133 -195h-164zM211 0v1075h147v-1075h-147z" />
<glyph unicode="&#xef;" horiz-adv-x="569" d="M33 1221v194h180v-194h-180zM211 0v1075h147v-1075h-147zM356 1221v194h181v-194h-181z" />
<glyph unicode="&#xf0;" d="M76 508q0 156 48.5 274t147 183t240.5 65q65 0 152 -29q-40 86 -132 191l-217 -121l-69 100l207 113q-100 100 -191 160l129 49q91 -56 174 -139l226 123l61 -103l-199 -114q86 -100 153 -219t104.5 -248.5t37.5 -257.5q0 -122 -27.5 -224.5t-82 -176t-137.5 -114 t-189 -40.5q-142 0 -240.5 65t-147 184t-48.5 279zM223 508q0 -187 73 -293t216 -106t216 105t73 294q0 184 -73 288.5t-216 104.5t-216 -105.5t-73 -287.5z" />
<glyph unicode="&#xf1;" horiz-adv-x="1139" d="M182 0v1075h148v-143h4q67 75 147 119.5t168 44.5q63 0 117.5 -16.5t97.5 -53.5t67.5 -97.5t24.5 -146.5v-782h-147v778q0 191 -174 191q-76 0 -160 -49.5t-145 -114.5v-805h-148zM219 1219q6 63 32.5 114t73.5 81t113 30q57 0 150 -37q87 -39 133 -39q39 0 64.5 24.5 t31.5 65.5h103q-6 -53 -32.5 -103.5t-70 -84t-96.5 -33.5q-55 0 -160 39q-103 39 -153 39q-30 0 -57 -30.5t-29 -65.5h-103z" />
<glyph unicode="&#xf2;" d="M76 539q0 156 49 283.5t148 200.5t239 73t239 -73t148 -200t49 -284q0 -158 -49 -285.5t-148 -200.5t-239 -73q-105 0 -187.5 42.5t-138.5 120t-83 177.5t-27 219zM223 539q0 -206 78 -318t211 -112q87 0 152.5 49t101 145.5t35.5 235.5q0 138 -35.5 234t-100.5 146 t-153 50q-133 0 -211 -112.5t-78 -317.5zM240 1493h223l182 -293h-137z" />
<glyph unicode="&#xf3;" d="M76 539q0 156 49 283.5t148 200.5t239 73t239 -73t148 -200t49 -284q0 -158 -49 -285.5t-148 -200.5t-239 -73q-105 0 -187.5 42.5t-138.5 120t-83 177.5t-27 219zM223 539q0 -206 78 -318t211 -112q87 0 152.5 49t101 145.5t35.5 235.5q0 138 -35.5 234t-100.5 146 t-153 50q-133 0 -211 -112.5t-78 -317.5zM379 1200l182 293h223l-268 -293h-137z" />
<glyph unicode="&#xf4;" d="M76 539q0 156 49 283.5t148 200.5t239 73t239 -73t148 -200t49 -284q0 -158 -49 -285.5t-148 -200.5t-239 -73q-105 0 -187.5 42.5t-138.5 120t-83 177.5t-27 219zM213 1200l201 293h192l205 -293h-164l-137 195l-133 -195h-164zM223 539q0 -206 78 -318t211 -112 q87 0 152.5 49t101 145.5t35.5 235.5q0 138 -35.5 234t-100.5 146t-153 50q-133 0 -211 -112.5t-78 -317.5z" />
<glyph unicode="&#xf5;" d="M76 539q0 156 49 283.5t148 200.5t239 73t239 -73t148 -200t49 -284q0 -158 -49 -285.5t-148 -200.5t-239 -73q-105 0 -187.5 42.5t-138.5 120t-83 177.5t-27 219zM162 1219q6 63 32.5 114t73.5 81t113 30q56 0 149 -37q89 -39 134 -39q39 0 64.5 24.5t31.5 65.5h102 q-5 -51 -31.5 -102.5t-70 -85t-96.5 -33.5q-55 0 -160 39q-50 19 -86 29t-68 10q-30 0 -57 -30.5t-29 -65.5h-102zM223 539q0 -206 78 -318t211 -112q87 0 152.5 49t101 145.5t35.5 235.5q0 138 -35.5 234t-100.5 146t-153 50q-133 0 -211 -112.5t-78 -317.5z" />
<glyph unicode="&#xf6;" d="M76 539q0 156 49 283.5t148 200.5t239 73t239 -73t148 -200t49 -284q0 -158 -49 -285.5t-148 -200.5t-239 -73q-105 0 -187.5 42.5t-138.5 120t-83 177.5t-27 219zM223 539q0 -206 78 -318t211 -112q87 0 152.5 49t101 145.5t35.5 235.5q0 138 -35.5 234t-100.5 146 t-153 50q-133 0 -211 -112.5t-78 -317.5zM260 1221v194h180v-194h-180zM584 1221v194h180v-194h-180z" />
<glyph unicode="&#xf7;" horiz-adv-x="1229" d="M82 473v129h1065v-129h-1065zM487 109q0 51 37 89t90 38q54 0 90.5 -37.5t36.5 -89.5q0 -53 -37 -91t-90 -38q-52 0 -89.5 38.5t-37.5 90.5zM487 969q0 51 37 89t90 38q54 0 90.5 -37.5t36.5 -89.5q0 -53 -37 -91t-90 -38q-52 0 -89.5 38.5t-37.5 90.5z" />
<glyph unicode="&#xf8;" d="M33 -170l170 293q-127 151 -127 416q0 156 49 283.5t148 200.5t239 73q129 0 221 -64l125 213h133l-168 -289q61 -75 93 -183.5t32 -233.5q0 -158 -49 -285.5t-148 -200.5t-239 -73q-135 0 -223 63l-125 -213h-131zM223 539q0 -173 58 -283l385 659q-63 54 -154 54 q-133 0 -211 -112.5t-78 -317.5zM356 160q63 -51 156 -51q87 0 152.5 49t101 145.5t35.5 235.5q0 175 -58 280z" />
<glyph unicode="&#xf9;" horiz-adv-x="1139" d="M182 293v782h148v-778q0 -100 44.5 -144t129.5 -44q74 0 158.5 48.5t146.5 112.5v805h147v-1075h-147v145h-4q-44 -50 -94.5 -87t-108 -57.5t-113.5 -20.5q-132 0 -219.5 76t-87.5 237zM297 1493h223l182 -293h-137z" />
<glyph unicode="&#xfa;" horiz-adv-x="1139" d="M182 293v782h148v-778q0 -100 44.5 -144t129.5 -44q74 0 158.5 48.5t146.5 112.5v805h147v-1075h-147v145h-4q-44 -50 -94.5 -87t-108 -57.5t-113.5 -20.5q-132 0 -219.5 76t-87.5 237zM436 1200l182 293h224l-269 -293h-137z" />
<glyph unicode="&#xfb;" horiz-adv-x="1139" d="M182 293v782h148v-778q0 -100 44.5 -144t129.5 -44q74 0 158.5 48.5t146.5 112.5v805h147v-1075h-147v145h-4q-44 -50 -94.5 -87t-108 -57.5t-113.5 -20.5q-132 0 -219.5 76t-87.5 237zM270 1200l201 293h193l204 -293h-163l-138 195l-133 -195h-164z" />
<glyph unicode="&#xfc;" horiz-adv-x="1139" d="M182 293v782h148v-778q0 -100 44.5 -144t129.5 -44q74 0 158.5 48.5t146.5 112.5v805h147v-1075h-147v145h-4q-44 -50 -94.5 -87t-108 -57.5t-113.5 -20.5q-132 0 -219.5 76t-87.5 237zM317 1221v194h181v-194h-181zM641 1221v194h180v-194h-180z" />
<glyph unicode="&#xfd;" horiz-adv-x="909" d="M25 1075h155l287 -821h4l250 821h156l-375 -1169q-54 -168 -147 -235.5t-212 -67.5q-17 0 -37 2t-40.5 5.5t-28.5 4.5v123q60 -6 80 -6q95 0 170 49.5t108 206.5zM322 1200l182 293h223l-268 -293h-137z" />
<glyph unicode="&#xfe;" horiz-adv-x="1139" d="M180 -397v1890h148v-543h4q44 63 122 104.5t154 41.5q106 0 205 -53t165 -178t66 -326q0 -150 -38.5 -257t-102.5 -174t-139.5 -97.5t-147.5 -30.5q-136 0 -280 118l-8 6v-501h-148zM328 256q62 -68 133.5 -107.5t134.5 -39.5q301 0 301 438q0 133 -36.5 228.5 t-104.5 144.5t-160 49q-68 0 -129.5 -34.5t-138.5 -111.5v-567z" />
<glyph unicode="&#xff;" horiz-adv-x="909" d="M25 1075h155l287 -821h4l250 821h156l-375 -1169q-54 -168 -147 -235.5t-212 -67.5q-17 0 -37 2t-40.5 5.5t-28.5 4.5v123q60 -6 80 -6q95 0 170 49.5t108 206.5zM203 1221v194h180v-194h-180zM526 1221v194h181v-194h-181z" />
<glyph unicode="&#x152;" horiz-adv-x="2048" d="M74 748q0 164 36.5 304t113.5 243.5t199 160.5t286 57q70 0 181 -10t159 -10h882v-139h-723v-502h514v-141h-514v-570h764v-141h-923q-48 0 -159 -10t-181 -10q-164 0 -286.5 58t-199 161.5t-113 244t-36.5 304.5zM238 748q0 -202 51 -343.5t155 -212.5t261 -71 q114 0 188.5 25t112.5 84t38 159v715q0 99 -38 159t-112 85.5t-189 25.5q-157 0 -261 -71t-155 -211.5t-51 -343.5z" />
<glyph unicode="&#x153;" horiz-adv-x="1593" d="M47 539q0 169 52 295.5t145.5 194t214.5 67.5q226 0 344 -193q89 193 340 193q80 0 150.5 -29t124 -88.5t84 -151t30.5 -219.5v-100h-655q0 -88 15.5 -163.5t48 -127t86 -80t128.5 -28.5q95 0 167.5 48.5t107.5 131.5l114 -60q-46 -106 -140 -177.5t-249 -71.5 q-85 0 -152 20t-117.5 64t-82.5 112q-60 -102 -146.5 -149t-197.5 -47q-121 0 -214.5 67.5t-145.5 194.5t-52 297zM195 539q0 -137 30.5 -233.5t89.5 -146.5t144 -50q89 0 149 49.5t90.5 146.5t30.5 234q0 211 -65.5 320.5t-204.5 109.5q-85 0 -144 -50.5t-89.5 -147 t-30.5 -232.5zM881 637h503q0 74 -16.5 135t-49.5 106t-80 68t-108 23q-242 0 -249 -332z" />
<glyph unicode="&#x178;" horiz-adv-x="1139" d="M33 1493h180l356 -684l357 684h180l-455 -864v-629h-164v629zM317 1593v195h181v-195h-181zM641 1593v195h180v-195h-180z" />
<glyph unicode="&#x2c6;" horiz-adv-x="569" d="M-14 1200l200 293h193l205 -293h-164l-137 195l-133 -195h-164z" />
<glyph unicode="&#x2dc;" horiz-adv-x="569" d="M-66 1219q11 98 67 161.5t153 63.5q56 0 149 -37q87 -39 133 -39q39 0 64.5 24.5t31.5 65.5h103q-5 -51 -31.5 -102.5t-70.5 -85t-97 -33.5q-34 0 -64 8t-96 31q-103 39 -153 39q-30 0 -57 -30.5t-29 -65.5h-103z" />
<glyph unicode="&#x2000;" horiz-adv-x="993" />
<glyph unicode="&#x2001;" horiz-adv-x="1987" />
<glyph unicode="&#x2002;" horiz-adv-x="993" />
<glyph unicode="&#x2003;" horiz-adv-x="1987" />
<glyph unicode="&#x2004;" horiz-adv-x="662" />
<glyph unicode="&#x2005;" horiz-adv-x="496" />
<glyph unicode="&#x2006;" horiz-adv-x="331" />
<glyph unicode="&#x2007;" horiz-adv-x="331" />
<glyph unicode="&#x2008;" horiz-adv-x="248" />
<glyph unicode="&#x2009;" horiz-adv-x="397" />
<glyph unicode="&#x200a;" horiz-adv-x="110" />
<glyph unicode="&#x2010;" horiz-adv-x="682" d="M82 473v129h516v-129h-516z" />
<glyph unicode="&#x2011;" horiz-adv-x="682" d="M82 473v129h516v-129h-516z" />
<glyph unicode="&#x2012;" horiz-adv-x="682" d="M82 473v129h516v-129h-516z" />
<glyph unicode="&#x2013;" d="M0 485v105h1024v-105h-1024z" />
<glyph unicode="&#x2014;" horiz-adv-x="2048" d="M0 485v105h2048v-105h-2048z" />
<glyph unicode="&#x2018;" horiz-adv-x="569" d="M178 993v228l129 292h86l-96 -292h82v-228h-201z" />
<glyph unicode="&#x2019;" horiz-adv-x="569" d="M176 973l96 293h-82v227h201v-227l-129 -293h-86z" />
<glyph unicode="&#x201a;" horiz-adv-x="569" d="M176 -293l96 293h-82v227h201v-227l-129 -293h-86z" />
<glyph unicode="&#x201c;" d="M211 993v228l129 292h86l-96 -292h82v-228h-201zM629 993v228l129 292h86l-96 -292h81v-228h-200z" />
<glyph unicode="&#x201d;" d="M180 973l96 293h-81v227h200v-227l-129 -293h-86zM598 973l96 293h-82v227h201v-227l-129 -293h-86z" />
<glyph unicode="&#x201e;" d="M180 -293l96 293h-81v227h200v-227l-129 -293h-86zM598 -293l96 293h-82v227h201v-227l-129 -293h-86z" />
<glyph unicode="&#x2022;" d="M141 748q0 101 49 185.5t133.5 134.5t186.5 50q77 0 144.5 -28t118 -78.5t79.5 -118t29 -145.5q0 -77 -29.5 -146t-79.5 -119.5t-118.5 -80t-143.5 -29.5q-100 0 -185.5 50.5t-134.5 136.5t-49 188z" />
<glyph unicode="&#x2026;" horiz-adv-x="2048" d="M242 0v227h200v-227h-200zM924 0v227h200v-227h-200zM1606 0v227h200v-227h-200z" />
<glyph unicode="&#x202f;" horiz-adv-x="397" />
<glyph unicode="&#x2039;" horiz-adv-x="682" d="M111 539l266 325h143l-264 -325l264 -328h-139z" />
<glyph unicode="&#x203a;" horiz-adv-x="682" d="M162 211l264 328l-264 325h143l266 -325l-270 -328h-139z" />
<glyph unicode="&#x205f;" horiz-adv-x="496" />
<glyph unicode="&#x2122;" horiz-adv-x="2028" d="M111 1382v111h659v-111h-262v-741h-139v741h-258zM893 641v852h215l254 -645l246 645h215v-852h-140v713h-4l-276 -713h-90l-277 713h-4v-713h-139z" />
<glyph unicode="&#x25fc;" horiz-adv-x="1075" d="M0 0v1075h1075v-1075h-1075z" />
</font>
</defs>
</svg>
